# xmcd
#
# Track frame offsets:
#	150
#	9707
#	23118
#	34658
#	49769
#	62622
#	74163
#	89474
#	102001
#	113114
#
# Disc length: 1708 seconds
#
# Revision: 1
# Processed by: cddbd v1.5.1PL0 Copyright (c) Steve Scherf et al.
# Submitted via: audiograbber 1.83.01
#
DISCID=8106aa0a
DTITLE=Dixie Cadillacs - Dixie Cadillacs
DYEAR=1900
DGENRE=Country
TTITLE0=This Heart's As Broke As It's Gonna Get
TTITLE1=Sure Looks Good On You
TTITLE2=Guadalupe River
TTITLE3=Man Of Her Dreams
TTITLE4=Get In Line
TTITLE5=My Future Ex-Wife
TTITLE6=No More Love In The World
TTITLE7=Now That I Found You
TTITLE8=She'll Treat You Right
TTITLE9=You Made My Day Last Night
EXTD=
EXTT0=
EXTT1=
EXTT2=
EXTT3=
EXTT4=
EXTT5=
EXTT6=
EXTT7=
EXTT8=
EXTT9=
PLAYORDER=
